<svg xmlns="http://www.w3.org/2000/svg" xmlns:xlink="http://www.w3.org/1999/xlink" width="300" zoomAndPan="magnify" viewBox="0 0 224.87999 74.999997" height="100" preserveAspectRatio="xMidYMid meet" version="1.0"><defs><g/><clipPath id="bebf12d845"><path d="M 63 47 L 114 47 L 114 57 L 63 57 Z M 63 47 " clip-rule="nonzero"/></clipPath><clipPath id="3d93b3ead5"><path d="M 63.574219 51.816406 L 113.4375 45.789062 L 114.15625 51.742188 L 64.292969 57.769531 Z M 63.574219 51.816406 " clip-rule="nonzero"/></clipPath><clipPath id="a87d89de95"><path d="M 63.574219 51.816406 L 113.4375 45.789062 L 114.15625 51.742188 L 64.292969 57.769531 Z M 63.574219 51.816406 " clip-rule="nonzero"/></clipPath><clipPath id="72384aeb50"><path d="M 63.574219 51.816406 L 113.4375 45.789062 L 114.15625 51.742188 L 64.292969 57.769531 Z M 63.574219 51.816406 " clip-rule="nonzero"/></clipPath></defs><g fill="#000000" fill-opacity="1"><g transform="translate(67.123754, 48.620741)"><g><path d="M 2.671875 -0.304688 C 6.917969 -0.789062 8.359375 -7.136719 9.167969 -8.980469 C 9.445312 -9.617188 8.082031 -10.417969 7.664062 -9.605469 C 7.117188 -8.523438 6.398438 -7.835938 5.300781 -7.710938 C 3.414062 -7.496094 3.460938 -9.316406 3.785156 -11.203125 C 4.207031 -13.925781 5.101562 -16.960938 6.433594 -20.648438 C 7.183594 -22.742188 6.628906 -23.664062 5.339844 -23.519531 C 2.792969 -23.226562 1.898438 -18.25 -0.230469 -8.703125 C -0.652344 -6.839844 -0.867188 -4.808594 -0.683594 -3.203125 C -0.472656 -1.347656 0.441406 -0.0507812 2.671875 -0.304688 Z M 2.671875 -0.304688 "/></g></g></g><g fill="#000000" fill-opacity="1"><g transform="translate(75.047647, 47.714999)"><g><path d="M 15.464844 -10.496094 C 14.941406 -9.480469 14.421875 -8.753906 13.476562 -8.644531 C 12.628906 -8.546875 11.8125 -8.996094 11.675781 -10.191406 C 11.496094 -11.765625 12.636719 -14.316406 12.4375 -16.078125 C 12.332031 -16.988281 11.945312 -17.296875 11.316406 -17.222656 C 9.714844 -17.039062 8.679688 -14.660156 7.859375 -10.394531 L 7.84375 -10.261719 C 7.488281 -8.628906 6.585938 -7.890625 5.453125 -7.761719 C 4.414062 -7.640625 4.070312 -8.144531 3.96875 -9.023438 C 3.757812 -10.878906 4.933594 -13.148438 4.699219 -15.191406 C 4.605469 -16.011719 4.273438 -16.417969 3.582031 -16.339844 C 1.820312 -16.136719 0.660156 -13.457031 -0.261719 -8.699219 C -0.65625 -6.582031 -0.507812 -4.722656 -0.398438 -3.777344 C -0.105469 -1.199219 1.097656 -0.15625 2.796875 -0.351562 C 5.25 -0.632812 6.539062 -3.265625 7.324219 -5.617188 C 7.3125 -5.136719 7.328125 -4.726562 7.375 -4.316406 C 7.632812 -2.082031 8.617188 -0.984375 10.472656 -1.195312 C 14.71875 -1.683594 16.160156 -8.027344 16.96875 -9.871094 C 17.246094 -10.511719 15.878906 -11.308594 15.464844 -10.496094 Z M 15.464844 -10.496094 "/></g></g></g><g fill="#000000" fill-opacity="1"><g transform="translate(90.769657, 45.91789)"><g><path d="M 4.375 -17.738281 C 6.011719 -17.925781 7.230469 -18.699219 7.195312 -20.671875 C 7.128906 -22.640625 5.773438 -23.089844 4.167969 -22.90625 C 2.4375 -22.707031 1.097656 -21.886719 1.355469 -19.652344 C 1.542969 -17.988281 2.867188 -17.5625 4.375 -17.738281 Z M 2.832031 -0.324219 C 6.886719 -0.789062 8.195312 -7.179688 9.007812 -8.996094 C 9.257812 -9.597656 7.921875 -10.398438 7.507812 -9.585938 C 6.984375 -8.574219 6.460938 -7.875 5.515625 -7.765625 C 4.667969 -7.671875 4.039062 -8.140625 3.921875 -9.179688 C 3.726562 -10.875 4.90625 -13.113281 4.6875 -15.03125 C 4.570312 -16.039062 4.113281 -16.402344 3.453125 -16.324219 C 1.660156 -16.121094 0.664062 -13.425781 -0.261719 -8.699219 C -0.5625 -7.136719 -0.679688 -5.402344 -0.511719 -3.925781 C -0.261719 -1.722656 0.722656 -0.0820312 2.832031 -0.324219 Z M 2.832031 -0.324219 "/></g></g></g><g fill="#000000" fill-opacity="1"><g transform="translate(98.504889, 45.033712)"><g><path d="M 11.941406 -10.09375 C 11.417969 -9.078125 10.839844 -8.3125 9.898438 -8.171875 C 9.265625 -10.074219 7.3125 -12.402344 7.242188 -13 C 7.101562 -14.257812 9.386719 -14.613281 9.238281 -15.617188 C 9.15625 -16.625 8.082031 -17.652344 6.132812 -17.429688 C 3.425781 -17.117188 1.730469 -12.175781 -0.15625 -8.902344 L -0.261719 -8.699219 C -1.789062 -5.339844 -0.507812 0.0273438 5.027344 -0.605469 C 10.878906 -1.273438 12.773438 -7.546875 13.445312 -9.46875 C 13.660156 -10.101562 12.359375 -10.90625 11.941406 -10.09375 Z M 3.15625 -6.957031 C 2.117188 -6.835938 1.328125 -7.320312 1.242188 -8.074219 C 1.863281 -9.070312 2.691406 -10.472656 3.34375 -11.722656 C 3.578125 -12.164062 3.832031 -12.195312 4.097656 -11.8125 C 4.636719 -11.011719 4.976562 -10.253906 5.0625 -9.5 C 5.210938 -8.210938 4.539062 -7.113281 3.15625 -6.957031 Z M 3.15625 -6.957031 "/></g></g></g><g fill="#000000" fill-opacity="1"><g transform="translate(110.673724, 43.64275)"><g><path d="M 5.914062 -0.675781 C 9.5625 -1.09375 12.585938 -4.179688 14.765625 -9.621094 C 15.042969 -10.257812 13.679688 -11.058594 13.261719 -10.246094 C 12.09375 -7.914062 9.671875 -6.523438 7.535156 -6.277344 C 5.742188 -6.074219 4.199219 -6.46875 4.074219 -7.570312 C 4.027344 -7.980469 4.328125 -8.109375 4.566406 -8.007812 C 5.335938 -7.683594 6.195312 -7.6875 7.074219 -7.785156 C 10.15625 -8.136719 11.84375 -10.945312 11.582031 -13.238281 C 11.34375 -15.316406 9.839844 -17.054688 6.914062 -16.71875 C -2.113281 -15.6875 -2.925781 0.335938 5.914062 -0.675781 Z M 5.988281 -10.050781 C 4.980469 -9.9375 4.441406 -10.480469 4.363281 -11.171875 C 4.265625 -12.019531 4.914062 -13.019531 6.140625 -13.160156 C 7.117188 -13.269531 7.65625 -12.726562 7.738281 -12.035156 C 7.828125 -11.25 7.214844 -10.191406 5.988281 -10.050781 Z M 5.988281 -10.050781 "/></g></g></g><g fill="#000000" fill-opacity="1"><g transform="translate(124.194656, 42.097236)"><g><path d="M 12.160156 -10.121094 C 11.640625 -9.105469 11.117188 -8.375 10.175781 -8.269531 C 8.757812 -8.105469 8.148438 -8.707031 8.046875 -9.585938 C 7.824219 -11.535156 9.027344 -13.011719 8.820312 -14.804688 C 8.628906 -16.503906 5.378906 -18.171875 2.421875 -17.832031 C 0.722656 -17.636719 -0.199219 -15.972656 -0.0546875 -14.683594 C 0.0742188 -13.550781 0.53125 -13.1875 1.1875 -13.039062 C 0.816406 -11.53125 0.238281 -9.617188 -0.261719 -8.699219 C -0.601562 -8.054688 0.929688 -7.210938 1.242188 -8.074219 C 1.628906 -9.171875 2.421875 -11.429688 2.84375 -12.75 C 4.15625 -12.421875 4.65625 -11.683594 4.691406 -11.367188 C 4.863281 -9.859375 3 -6.652344 3.332031 -3.726562 C 3.515625 -2.121094 4.589844 -0.523438 7.171875 -0.820312 C 11.417969 -1.304688 12.859375 -7.652344 13.667969 -9.496094 C 13.945312 -10.132812 12.578125 -10.933594 12.160156 -10.121094 Z M 12.160156 -10.121094 "/></g></g></g><g fill="#000000" fill-opacity="1"><g transform="translate(136.615044, 40.67752)"><g><path d="M 3.332031 -0.382812 C 5.566406 -0.636719 7.21875 -2.894531 8.1875 -5.585938 L 8.3125 -5.601562 C 8.234375 -2.949219 9.371094 -1.070312 11.542969 -1.320312 C 15.03125 -1.71875 16.203125 -6.820312 17.410156 -9.921875 C 17.65625 -10.558594 16.289062 -11.355469 15.902344 -10.546875 C 15.390625 -9.46875 14.671875 -8.78125 13.601562 -8.660156 C 12.21875 -8.5 11.730469 -9.71875 12.535156 -12.136719 C 13.019531 -14.042969 13.726562 -15.109375 13.589844 -16.304688 C 13.507812 -16.996094 13.171875 -17.4375 12.355469 -17.34375 C 10.875 -17.171875 10.792969 -15.953125 9.753906 -15.835938 C 8.9375 -15.742188 8.925781 -16.949219 6.410156 -16.664062 C 1 -16.042969 -0.949219 -9.132812 -0.449219 -4.757812 C -0.128906 -1.960938 1.195312 -0.136719 3.332031 -0.382812 Z M 5.734375 -7.25 C 4.757812 -7.140625 4.089844 -7.699219 3.96875 -8.769531 C 3.808594 -10.152344 4.671875 -11.8125 6.308594 -12 C 7.3125 -12.113281 8.015625 -11.558594 8.132812 -10.519531 C 8.285156 -9.199219 7.371094 -7.4375 5.734375 -7.25 Z M 5.734375 -7.25 "/></g></g></g><g clip-path="url(#bebf12d845)"><g clip-path="url(#3d93b3ead5)"><g clip-path="url(#a87d89de95)"><g clip-path="url(#72384aeb50)"><path fill="#000000" d="M 77.753906 56.066406 C 73.191406 56.519531 68.097656 56.210938 64.613281 52.742188 C 64.320312 52.5 63.664062 51.804688 64.125 51.914062 C 64.710938 52.1875 65.40625 52.808594 66.046875 52.886719 C 68.566406 53.46875 71.191406 53.171875 73.730469 52.910156 C 81.542969 51.792969 89.214844 49.816406 97.023438 48.636719 C 101.054688 48.054688 105.125 47.246094 109.207031 47.273438 C 110.738281 47.808594 112.054688 49 113.128906 50.222656 C 113.996094 51.191406 112.828125 51.140625 112.125 51.269531 C 110.679688 51.476562 109.226562 51.605469 107.777344 51.757812 C 97.703125 52.691406 87.800781 54.925781 77.753906 56.070312 Z M 77.753906 56.066406 " fill-opacity="1" fill-rule="nonzero"/></g></g></g></g><g fill="#000000" fill-opacity="1"><g transform="translate(123.36188, 46.14665)"><g><path d="M 3.074219 -2.597656 C 2.941406 -2.335938 2.792969 -2.140625 2.550781 -2.101562 C 2.386719 -2.59375 1.882812 -3.191406 1.867188 -3.347656 C 1.828125 -3.671875 2.417969 -3.761719 2.378906 -4.019531 C 2.359375 -4.28125 2.082031 -4.542969 1.582031 -4.488281 C 0.882812 -4.40625 0.445312 -3.136719 -0.0390625 -2.292969 L -0.0664062 -2.238281 C -0.460938 -1.375 -0.128906 0.0078125 1.292969 -0.15625 C 2.800781 -0.328125 3.289062 -1.941406 3.460938 -2.4375 C 3.519531 -2.597656 3.183594 -2.808594 3.074219 -2.597656 Z M 0.8125 -1.789062 C 0.546875 -1.761719 0.34375 -1.882812 0.320312 -2.078125 C 0.480469 -2.335938 0.695312 -2.695312 0.863281 -3.019531 C 0.921875 -3.132812 0.988281 -3.140625 1.054688 -3.039062 C 1.195312 -2.835938 1.28125 -2.640625 1.304688 -2.445312 C 1.34375 -2.113281 1.167969 -1.832031 0.8125 -1.789062 Z M 0.8125 -1.789062 "/></g></g></g><g fill="#000000" fill-opacity="1"><g transform="translate(126.49533, 45.789638)"><g><path d="M 3.789062 -2.679688 C 3.625 -2.375 3.421875 -2.234375 3.183594 -2.207031 L 3.128906 -2.203125 C 3.179688 -2.480469 3.1875 -2.765625 3.15625 -3.050781 C 3.039062 -4.070312 2.476562 -4.382812 1.8125 -4.308594 C 0.527344 -4.160156 -0.246094 -2.582031 -0.105469 -1.367188 C -0.0117188 -0.523438 0.574219 -0.0664062 1.304688 -0.148438 C 1.910156 -0.21875 2.445312 -0.640625 2.789062 -1.234375 L 2.882812 -1.246094 C 3.671875 -1.335938 3.996094 -1.996094 4.175781 -2.519531 C 4.242188 -2.714844 3.871094 -2.828125 3.789062 -2.679688 Z M 1.574219 -1.878906 C 1.265625 -1.84375 1.128906 -2.03125 1.101562 -2.265625 C 1.0625 -2.621094 1.285156 -3.050781 1.679688 -3.09375 C 1.996094 -3.132812 2.148438 -2.953125 2.175781 -2.71875 C 2.214844 -2.375 1.980469 -1.921875 1.574219 -1.878906 Z M 1.574219 -1.878906 "/></g></g></g><g fill="#000000" fill-opacity="1"><g transform="translate(130.349394, 45.350523)"><g><path d="M 1.425781 -0.164062 C 2.371094 -0.269531 3.160156 -1.066406 3.722656 -2.464844 C 3.792969 -2.628906 3.441406 -2.835938 3.335938 -2.628906 C 2.699219 -1.441406 1.097656 -1.324219 0.972656 -2.40625 C 0.925781 -2.8125 1.09375 -3.21875 1.457031 -3.257812 C 1.699219 -3.285156 1.804688 -3.160156 1.824219 -3.011719 C 1.855469 -2.722656 1.671875 -2.667969 1.6875 -2.53125 C 1.699219 -2.425781 1.851562 -2.320312 2.136719 -2.351562 C 2.484375 -2.390625 2.929688 -2.722656 2.851562 -3.417969 C 2.789062 -3.945312 2.398438 -4.375 1.621094 -4.285156 C 0.339844 -4.140625 -0.285156 -2.714844 -0.15625 -1.582031 C -0.0585938 -0.738281 0.453125 -0.0507812 1.425781 -0.164062 Z M 1.425781 -0.164062 "/></g></g></g><g fill="#000000" fill-opacity="1"><g transform="translate(133.750038, 44.963069)"><g><path d="M 1.128906 -4.566406 C 1.550781 -4.613281 1.863281 -4.8125 1.855469 -5.320312 C 1.835938 -5.828125 1.488281 -5.945312 1.074219 -5.898438 C 0.628906 -5.847656 0.285156 -5.636719 0.351562 -5.058594 C 0.398438 -4.632812 0.738281 -4.523438 1.128906 -4.566406 Z M 0.730469 -0.0820312 C 1.773438 -0.203125 2.109375 -1.847656 2.320312 -2.316406 C 2.382812 -2.46875 2.042969 -2.675781 1.933594 -2.46875 C 1.800781 -2.207031 1.664062 -2.027344 1.421875 -2 C 1.203125 -1.972656 1.039062 -2.09375 1.011719 -2.363281 C 0.960938 -2.800781 1.265625 -3.375 1.207031 -3.871094 C 1.179688 -4.128906 1.0625 -4.222656 0.890625 -4.203125 C 0.429688 -4.148438 0.171875 -3.457031 -0.0664062 -2.238281 C -0.144531 -1.835938 -0.175781 -1.390625 -0.132812 -1.011719 C -0.0664062 -0.445312 0.1875 -0.0195312 0.730469 -0.0820312 Z M 0.730469 -0.0820312 "/></g></g></g><g fill="#000000" fill-opacity="1"><g transform="translate(135.741844, 44.736131)"><g><path d="M 0.859375 -0.0976562 C 1.433594 -0.164062 1.859375 -0.746094 2.109375 -1.4375 L 2.140625 -1.441406 C 2.121094 -0.757812 2.414062 -0.273438 2.972656 -0.339844 C 3.871094 -0.441406 4.171875 -1.753906 4.484375 -2.554688 C 4.546875 -2.714844 4.195312 -2.921875 4.09375 -2.714844 C 3.964844 -2.4375 3.777344 -2.257812 3.503906 -2.226562 C 3.148438 -2.1875 3.019531 -2.5 3.230469 -3.125 C 3.351562 -3.613281 3.535156 -3.890625 3.5 -4.195312 C 3.480469 -4.375 3.394531 -4.488281 3.183594 -4.464844 C 2.800781 -4.421875 2.78125 -4.105469 2.511719 -4.074219 C 2.300781 -4.050781 2.300781 -4.363281 1.652344 -4.289062 C 0.257812 -4.132812 -0.242188 -2.351562 -0.113281 -1.226562 C -0.03125 -0.503906 0.308594 -0.0351562 0.859375 -0.0976562 Z M 1.476562 -1.867188 C 1.226562 -1.835938 1.054688 -1.980469 1.023438 -2.257812 C 0.980469 -2.613281 1.203125 -3.039062 1.625 -3.089844 C 1.882812 -3.117188 2.066406 -2.976562 2.09375 -2.707031 C 2.132812 -2.367188 1.898438 -1.914062 1.476562 -1.867188 Z M 1.476562 -1.867188 "/></g></g></g><g fill="#000000" fill-opacity="1"><g transform="translate(139.903584, 44.261961)"><g><path d="M 0.6875 -0.078125 C 1.78125 -0.203125 2.152344 -1.835938 2.363281 -2.3125 C 2.433594 -2.476562 2.082031 -2.679688 1.972656 -2.472656 C 1.832031 -2.195312 1.648438 -2.015625 1.363281 -1.984375 C 0.878906 -1.929688 0.890625 -2.398438 0.976562 -2.882812 C 1.085938 -3.585938 1.316406 -4.367188 1.660156 -5.316406 C 1.851562 -5.855469 1.710938 -6.09375 1.378906 -6.054688 C 0.722656 -5.980469 0.488281 -4.699219 -0.0585938 -2.242188 C -0.167969 -1.761719 -0.222656 -1.238281 -0.175781 -0.824219 C -0.121094 -0.347656 0.113281 -0.0117188 0.6875 -0.078125 Z M 0.6875 -0.078125 "/></g></g></g><g fill="#000000" fill-opacity="1"><g transform="translate(141.943971, 44.029488)"><g/></g></g><g fill="#000000" fill-opacity="1"><g transform="translate(144.858808, 43.697384)"><g><path d="M 0.511719 -0.0585938 C 1.085938 -0.125 1.140625 -0.582031 1.09375 -0.992188 L 1.050781 -1.359375 C 0.96875 -2.078125 1.296875 -2.796875 1.765625 -2.851562 C 1.953125 -2.871094 2.085938 -2.789062 2.109375 -2.570312 C 2.15625 -2.15625 1.816406 -1.558594 1.886719 -0.945312 C 1.945312 -0.410156 2.242188 -0.273438 2.613281 -0.3125 C 3.222656 -0.382812 3.285156 -0.839844 3.246094 -1.183594 C 3.21875 -1.417969 3.152344 -1.492188 3.125 -1.726562 C 3.054688 -2.332031 3.382812 -3.050781 3.855469 -3.105469 C 4.039062 -3.125 4.171875 -3.042969 4.195312 -2.855469 C 4.230469 -2.523438 3.953125 -1.945312 4.023438 -1.328125 C 4.078125 -0.867188 4.300781 -0.488281 4.816406 -0.550781 C 5.910156 -0.671875 6.28125 -2.308594 6.492188 -2.78125 C 6.5625 -2.945312 6.210938 -3.152344 6.105469 -2.941406 C 5.96875 -2.683594 5.835938 -2.492188 5.59375 -2.464844 C 5.316406 -2.433594 5.179688 -2.558594 5.148438 -2.84375 C 5.101562 -3.246094 5.332031 -3.535156 5.28125 -3.964844 C 5.234375 -4.371094 4.960938 -4.683594 4.332031 -4.609375 C 3.941406 -4.566406 3.613281 -4.339844 3.347656 -3.964844 C 3.242188 -3.8125 3.179688 -3.839844 3.144531 -3.941406 C 3.03125 -4.226562 2.777344 -4.417969 2.382812 -4.371094 C 2.023438 -4.332031 1.71875 -4.125 1.453125 -3.800781 C 1.222656 -3.511719 1.03125 -3.628906 1 -3.902344 C 0.980469 -4.066406 0.898438 -4.203125 0.710938 -4.183594 C 0.390625 -4.144531 0.152344 -3.273438 -0.0664062 -2.238281 C -0.21875 -1.550781 -0.191406 -0.960938 -0.148438 -0.582031 C -0.109375 -0.242188 0.128906 -0.015625 0.511719 -0.0585938 Z M 0.511719 -0.0585938 "/></g></g></g><g fill="#000000" fill-opacity="1"><g transform="translate(151.028549, 42.994431)"><g><path d="M 1.523438 -0.171875 C 2.460938 -0.28125 3.242188 -1.074219 3.804688 -2.476562 C 3.875 -2.640625 3.523438 -2.847656 3.414062 -2.636719 C 3.113281 -2.035156 2.492188 -1.679688 1.941406 -1.617188 C 1.480469 -1.5625 1.082031 -1.664062 1.050781 -1.949219 C 1.039062 -2.054688 1.117188 -2.085938 1.175781 -2.0625 C 1.375 -1.976562 1.59375 -1.976562 1.824219 -2.003906 C 2.617188 -2.09375 3.050781 -2.816406 2.984375 -3.40625 C 2.921875 -3.941406 2.535156 -4.390625 1.78125 -4.304688 C -0.542969 -4.039062 -0.753906 0.0859375 1.523438 -0.171875 Z M 1.542969 -2.585938 C 1.285156 -2.558594 1.144531 -2.699219 1.125 -2.875 C 1.097656 -3.09375 1.265625 -3.351562 1.582031 -3.386719 C 1.832031 -3.417969 1.972656 -3.277344 1.992188 -3.097656 C 2.015625 -2.894531 1.859375 -2.625 1.542969 -2.585938 Z M 1.542969 -2.585938 "/></g></g></g><g fill="#000000" fill-opacity="1"><g transform="translate(154.510162, 42.597751)"><g><path d="M 0.949219 -0.109375 C 1.441406 -0.164062 1.851562 -0.742188 2.109375 -1.4375 L 2.140625 -1.441406 C 2.128906 -0.757812 2.453125 -0.28125 2.972656 -0.339844 C 3.871094 -0.441406 4.171875 -1.753906 4.484375 -2.554688 C 4.546875 -2.714844 4.195312 -2.921875 4.09375 -2.714844 C 3.964844 -2.4375 3.777344 -2.257812 3.503906 -2.226562 C 3.148438 -2.1875 3.019531 -2.5 3.230469 -3.125 L 3.878906 -5.570312 C 4.035156 -6.054688 3.886719 -6.339844 3.605469 -6.308594 C 3.359375 -6.28125 3.078125 -6.109375 2.855469 -5.328125 C 2.601562 -4.457031 2.652344 -4.011719 2.523438 -3.996094 C 2.3125 -3.972656 2.300781 -4.363281 1.652344 -4.289062 C 0.257812 -4.132812 -0.242188 -2.351562 -0.105469 -1.152344 C -0.03125 -0.503906 0.308594 -0.0351562 0.949219 -0.109375 Z M 1.492188 -1.867188 C 1.1875 -1.832031 1.050781 -2.023438 1.023438 -2.257812 C 0.980469 -2.613281 1.203125 -3.039062 1.601562 -3.085938 C 1.917969 -3.121094 2.066406 -2.941406 2.09375 -2.707031 C 2.132812 -2.367188 1.898438 -1.914062 1.492188 -1.867188 Z M 1.492188 -1.867188 "/></g></g></g><g fill="#000000" fill-opacity="1"><g transform="translate(158.671903, 42.123581)"><g><path d="M 1.128906 -4.566406 C 1.550781 -4.613281 1.863281 -4.8125 1.855469 -5.320312 C 1.835938 -5.828125 1.488281 -5.945312 1.074219 -5.898438 C 0.628906 -5.847656 0.285156 -5.636719 0.351562 -5.058594 C 0.398438 -4.632812 0.738281 -4.523438 1.128906 -4.566406 Z M 0.730469 -0.0820312 C 1.773438 -0.203125 2.109375 -1.847656 2.320312 -2.316406 C 2.382812 -2.46875 2.042969 -2.675781 1.933594 -2.46875 C 1.800781 -2.207031 1.664062 -2.027344 1.421875 -2 C 1.203125 -1.972656 1.039062 -2.09375 1.011719 -2.363281 C 0.960938 -2.800781 1.265625 -3.375 1.207031 -3.871094 C 1.179688 -4.128906 1.0625 -4.222656 0.890625 -4.203125 C 0.429688 -4.148438 0.171875 -3.457031 -0.0664062 -2.238281 C -0.144531 -1.835938 -0.175781 -1.390625 -0.132812 -1.011719 C -0.0664062 -0.445312 0.1875 -0.0195312 0.730469 -0.0820312 Z M 0.730469 -0.0820312 "/></g></g></g><g fill="#000000" fill-opacity="1"><g transform="translate(160.66371, 41.896643)"><g><path d="M 0.859375 -0.0976562 C 1.433594 -0.164062 1.859375 -0.746094 2.109375 -1.4375 L 2.140625 -1.441406 C 2.121094 -0.757812 2.414062 -0.273438 2.972656 -0.339844 C 3.871094 -0.441406 4.171875 -1.753906 4.484375 -2.554688 C 4.546875 -2.714844 4.195312 -2.921875 4.09375 -2.714844 C 3.964844 -2.4375 3.777344 -2.257812 3.503906 -2.226562 C 3.148438 -2.1875 3.019531 -2.5 3.230469 -3.125 C 3.351562 -3.613281 3.535156 -3.890625 3.5 -4.195312 C 3.480469 -4.375 3.394531 -4.488281 3.183594 -4.464844 C 2.800781 -4.421875 2.78125 -4.105469 2.511719 -4.074219 C 2.300781 -4.050781 2.300781 -4.363281 1.652344 -4.289062 C 0.257812 -4.132812 -0.242188 -2.351562 -0.113281 -1.226562 C -0.03125 -0.503906 0.308594 -0.0351562 0.859375 -0.0976562 Z M 1.476562 -1.867188 C 1.226562 -1.835938 1.054688 -1.980469 1.023438 -2.257812 C 0.980469 -2.613281 1.203125 -3.039062 1.625 -3.089844 C 1.882812 -3.117188 2.066406 -2.976562 2.09375 -2.707031 C 2.132812 -2.367188 1.898438 -1.914062 1.476562 -1.867188 Z M 1.476562 -1.867188 "/></g></g></g></svg>